<?xml version="1.0" encoding="UTF-8"?>
<svg xmlns="http://www.w3.org/2000/svg" width="612" height="792" xmlns:xlink="http://www.w3.org/1999/xlink" viewBox="0 0 612 792">
  <defs>
    <style>
      .cls-1 {
        fill: none;
        stroke: #231f20;
        stroke-miterlimit: 10;
      }

      .cls-2 {
        fill: url(#linear-gradient-2);
      }

      .cls-3 {
        fill: #fff;
      }

      .cls-4 {
        fill: #a7a9ac;
      }

      .cls-5 {
        fill: #9e1f63;
      }

      .cls-6 {
        fill: #00aeef;
      }

      .cls-7 {
        fill: #ffc914;
      }

      .cls-8 {
        fill: #2f3253;
      }

      .cls-9 {
        fill: #ed1c24;
      }

      .cls-10 {
        fill: #8f889e;
      }

      .cls-11 {
        fill: #ef4136;
      }

      .cls-12 {
        fill: #428a55;
      }

      .cls-13 {
        fill: url(#linear-gradient-3);
      }

      .cls-14 {
        fill: url(#linear-gradient);
      }

      .cls-15 {
        fill: #ec008c;
      }

      .cls-16 {
        fill: #1e1e1e;
      }

      .cls-17 {
        fill: #231f20;
      }

      .cls-18 {
        fill: url(#linear-gradient-4);
      }
    </style>
    <linearGradient id="linear-gradient" x1="217.03" y1="418.4828" x2="462.19" y2="418.4828" gradientUnits="userSpaceOnUse">
      <stop offset="0" stop-color="#fff"/>
      <stop offset=".4506" stop-color="#fdfdfd"/>
      <stop offset=".613" stop-color="#f7f6f7"/>
      <stop offset=".7286" stop-color="#eceaed"/>
      <stop offset=".8222" stop-color="#ddd9df"/>
      <stop offset=".9023" stop-color="#c9c3cd"/>
      <stop offset=".972" stop-color="#b1a9b6"/>
      <stop offset="1" stop-color="#a69cac"/>
    </linearGradient>
    <linearGradient id="linear-gradient-2" x1="217.9527" y1="235.9917" x2="264.7817" y2="235.9917" gradientUnits="userSpaceOnUse">
      <stop offset="0" stop-color="#fff"/>
      <stop offset=".3368" stop-color="#fdfcfc"/>
      <stop offset=".4777" stop-color="#f5f5f5"/>
      <stop offset=".5821" stop-color="#e9e9e9"/>
      <stop offset=".6684" stop-color="#d8d7d7"/>
      <stop offset=".7436" stop-color="#c1c0c1"/>
      <stop offset=".811" stop-color="#a6a4a4"/>
      <stop offset=".8727" stop-color="#848283"/>
      <stop offset=".9298" stop-color="#5e5b5c"/>
      <stop offset=".9812" stop-color="#343031"/>
      <stop offset="1" stop-color="#231f20"/>
    </linearGradient>
    <linearGradient id="linear-gradient-3" x1="277.6885" y1="248.7098" x2="461.2672" y2="248.7098" xlink:href="#linear-gradient-2"/>
    <linearGradient id="linear-gradient-4" x1="277.6672" y1="227.9874" x2="461.2672" y2="227.9874" xlink:href="#linear-gradient-2"/>
  </defs>
  <g id="Background_-_Ad" data-name="Background - Ad">
    <path class="cls-5" d="m488.13,163.74v442.36c0,33.33-26.7899,60.59-59.5499,60.59h-177.9301c-32.77,0-59.56-27.26-59.56-60.59V163.74c0-33.33,26.79-60.59,59.56-60.59h42.62c.83,5.6,5.65,9.93,11.43,9.93h69.82c5.78,0,10.6-4.33,11.43-9.93h42.6301c32.76,0,59.5499,27.26,59.5499,60.59Z"/>
    <path class="cls-17" d="m437.5801,84.68h-195.9401c-36.07,0-65.58,29.05-65.58,64.57v471.34c0,35.52,29.51,64.57,65.58,64.57h195.9401c36.0798,0,65.5798-29.05,65.5798-64.57V149.25c0-35.52-29.5-64.57-65.5798-64.57Zm50.5499,521.42c0,33.33-26.7899,60.59-59.5499,60.59h-177.9301c-32.77,0-59.56-27.26-59.56-60.59V163.74c0-33.33,26.79-60.59,59.56-60.59h42.62c.83,5.6,5.65,9.93,11.43,9.93h69.82c5.78,0,10.6-4.33,11.43-9.93h42.6301c32.76,0,59.5499,27.26,59.5499,60.59v442.36Z"/>
  </g>
  <g id="Foreground_-_Ad" data-name="Foreground - Ad">
    <rect class="cls-14" x="217.03" y="279.7028" width="245.16" height="277.56" rx="12" ry="12"/>
    <g>
      <circle class="cls-2" cx="241.3672" cy="235.9917" r="23.4145"/>
      <rect class="cls-13" x="277.6885" y="244.0893" width="183.5787" height="9.2411" rx="4.6205" ry="4.6205"/>
      <rect class="cls-18" x="277.6672" y="218.653" width="183.6" height="18.6688" rx="9.3344" ry="9.3344"/>
    </g>
    <g>
      <g>
        <polyline class="cls-1" points="439.3465 535.4677 428.9922 531.4059 451.0899 523.192 451.1689 523.203 451.1844 523.283 443.7876 545.6655 439.3465 535.4677"/>
        <line class="cls-1" x1="451.1689" y1="523.203" x2="439.3465" y2="535.4677"/>
      </g>
      <path class="cls-9" d="m251.1737,534.6136l-1.5194,1.517-9.1069,9.1093-9.1093-9.1093-1.517-1.517c-2.514-2.5165-2.514-6.5928,0-9.1093,1.257-1.257,2.9053-1.8867,4.5535-1.8867s3.2964.6297,4.5535,1.8867l1.5194,1.5194,1.517-1.5194c2.5164-2.5141,6.5928-2.5141,9.1093,0,2.5141,2.5164,2.5141,6.5928,0,9.1093Z"/>
      <path class="cls-1" d="m281.854,541.342l.8854,5.0402-5.9256-1.5665c-.946.2498-3.2013.9535-4.2228.9535-6.4326,0-11.647-5.2142-11.647-11.6468s5.2143-11.6469,11.647-11.6469,11.6468,5.2142,11.6468,11.6469c0,2.1341-1.3773,5.5018-2.3838,7.2197Z"/>
    </g>
    <g>
      <rect class="cls-16" x="269.9321" y="431.5983" width="143.0147" height="88.7774" rx="23.3695" ry="23.3695"/>
      <rect class="cls-6" x="285.8005" y="444.4882" width="13.2379" height="4.9819" rx="1.176" ry="1.176"/>
      <rect class="cls-3" x="303.8112" y="444.4882" width="23.7961" height="4.9819" rx="1.176" ry="1.176"/>
      <rect class="cls-3" x="332.6729" y="444.4882" width="23.7961" height="4.9819" rx="1.176" ry="1.176"/>
      <rect class="cls-12" x="290.4351" y="453.8728" width="84.4755" height="4.9819" rx="1.176" ry="1.176"/>
      <rect class="cls-6" x="291.4443" y="464.9083" width="13.2379" height="4.9819" rx="1.176" ry="1.176"/>
      <rect class="cls-6" x="299.0384" y="474.5131" width="13.2379" height="4.9819" rx="1.176" ry="1.176"/>
      <rect class="cls-3" x="319.2912" y="474.5131" width="23.7961" height="4.9819" rx="1.176" ry="1.176"/>
      <rect class="cls-6" x="349.85" y="474.5131" width="13.2379" height="4.9819" rx="1.176" ry="1.176"/>
      <rect class="cls-7" x="381.0514" y="474.5131" width="13.2379" height="4.9819" rx="1.176" ry="1.176"/>
      <rect class="cls-15" x="370.4568" y="474.5131" width="10.4209" height="4.9819" rx="1.176" ry="1.176"/>
      <rect class="cls-6" x="299.0551" y="484.1178" width="13.2379" height="4.9819" rx="1.176" ry="1.176"/>
      <rect class="cls-3" x="319.1818" y="484.1178" width="17.308" height="4.9819" rx="1.176" ry="1.176"/>
      <rect class="cls-6" x="342.4639" y="484.1178" width="8.4334" height="4.9819" rx="1.176" ry="1.176"/>
      <rect class="cls-3" x="368.1273" y="484.1178" width="10.4209" height="4.9819" rx="1.176" ry="1.176"/>
      <rect class="cls-12" x="292.4195" y="493.7226" width="84.4755" height="4.9819" rx="1.176" ry="1.176"/>
      <rect class="cls-11" x="292.4195" y="504.5899" width="13.2379" height="4.9819" rx="1.176" ry="1.176"/>
      <rect class="cls-11" x="307.7128" y="464.9083" width="13.2379" height="4.9819" rx="1.176" ry="1.176"/>
    </g>
    <g>
      <path class="cls-4" d="m297.9962,372.0045c-7.7263-1.0541-13.6045-7.173-14.2379-14.2877-.7386-8.2961,5.7952-16.3589,14.9872-17.2956-3.7322-9.9165-1.2117-20.8457,5.9949-27.0714,9.056-7.8234,24.2099-7.0947,33.7212,3.0079,7.2558-6.4569,17.5015-8.2207,26.2276-4.5119,9.6005,4.0804,15.6744,14.068,14.9872,24.8155,10.8506.2302,19.0459,8.06,19.4834,16.5437.4566,8.8543-8.2293,18.4457-8.7426,18.7996h-92.4212Z"/>
      <path class="cls-10" d="m340.0685,367.0864l-21.0463,15.3532c-1.8186,1.3267-.8802,4.2054,1.3709,4.2054h42.0925c2.2511,0,3.1896-2.8787,1.3709-4.2054l-21.0463-15.3532c-.8168-.5959-1.925-.5959-2.7418,0Z"/>
      <path class="cls-10" d="m336.736,385.1806h9.4069c1.5349,0,2.7811,1.2461,2.7811,2.7811v27.7712c0,2.5787-2.0936,4.6724-4.6724,4.6724h-5.6243c-2.5787,0-4.6724-2.0936-4.6724-4.6724v-27.7712c0-1.5349,1.2461-2.7811,2.7811-2.7811Z"/>
    </g>
    <g>
      <path class="cls-8" d="m337.0168,353.2548c0,.075.0026.1501.0051.2251l-2.8475,1.5985c.1178.838.3201,1.6535.5941,2.434l3.2751.1651c.3073.6304.6837,1.2232,1.1114,1.7736l-1.3393,2.9243c.5941.6004,1.2445,1.1457,1.9461,1.6285l2.7476-1.7461c.6197.3302,1.2778.5954,1.9666.798l.6735,3.1344c.8271.1415,1.6784.2149,2.5507.2009l.0049-.0033,1.1754-2.9918c.7144-.0926,1.4058-.2552,2.0691-.4803l2.4327,2.1513c.7733-.3677,1.5031-.8055,2.1843-1.3058l-.8502-3.0994c.5121-.4803.9756-1.0081,1.3828-1.5785l3.2649.3452c.3995-.7329.7298-1.5034.9833-2.3114l-2.553-2.0187c.1101-.5979.1716-1.2132.1716-1.8436,0-.075-.0051-.1501-.0051-.2251l2.8475-1.596c-.1204-.8405-.3201-1.6535-.5941-2.4365l-3.2752-.1651c-.3098-.6304-.6837-1.2232-1.1139-1.7736l1.3418-2.9218c-.5941-.6029-1.2445-1.1482-1.9461-1.631l-2.7476,1.7461c-.6197-.3277-1.2804-.5954-1.9666-.798l-.6735-3.1344c-.8274-.1415-1.6822-.2149-2.5543-.2009l-1.1766,2.9951c-.7144.0926-1.4058.2552-2.0691.4828l-2.4352-2.1538c-.7708.3702-1.5031.808-2.1843,1.3083l.8527,3.0994c-.5121.4778-.9782,1.0056-1.3828,1.576l-3.2649-.3427c-.3995.7304-.7298,1.5034-.9833,2.3089l2.553,2.0187c-.1101.5979-.1716,1.2132-.1716,1.8436Zm9.703-7.3723c4.7939-.4615,8.7884,3.4399,8.3173,8.1228-.3488,3.4671-3.2165,6.2735-6.7649,6.6207-4.7995.4697-8.8036-3.4403-8.3254-8.1316.3534-3.4668,3.2239-6.2703,6.7731-6.6119Z"/>
      <path class="cls-8" d="m320.9904,342.3464c0,.0518.0018.1036.0035.1553l-1.9646,1.1028c.0813.5782.2208,1.1408.4099,1.6793l2.2596.1139c.212.4349.4717.8439.7667,1.2236l-.924,2.0175c.4099.4142.8586.7904,1.3427,1.1235l1.8956-1.2047c.4275.2278.8816.4108,1.3568.5505l.4646,2.1625c.5706.0976,1.158.1483,1.7598.1386l.0034-.0023.8109-2.0641c.4929-.0639.9699-.176,1.4275-.3314l1.6783,1.4842c.5335-.2537,1.037-.5557,1.507-.9009l-.5865-2.1383c.3533-.3314.6731-.6955.954-1.089l2.2525.2382c.2756-.5057.5035-1.0372.6784-1.5947l-1.7614-1.3928c.076-.4125.1184-.837.1184-1.272,0-.0518-.0035-.1035-.0035-.1553l1.9646-1.1011c-.083-.5799-.2208-1.1408-.4099-1.681l-2.2596-.1139c-.2138-.4349-.4717-.8439-.7685-1.2236l.9257-2.0158c-.4099-.4159-.8586-.7922-1.3427-1.1252l-1.8956,1.2046c-.4275-.2261-.8833-.4108-1.3568-.5505l-.4646-2.1625c-.5709-.0976-1.1606-.1483-1.7623-.1386l-.8118,2.0664c-.4929.0639-.9699.176-1.4275.3331l-1.6801-1.486c-.5318.2554-1.037.5574-1.507.9026l.5883,2.1383c-.3533.3296-.6749.6938-.954,1.0873l-2.2525-.2364c-.2756.5039-.5035,1.0372-.6784,1.593l1.7614,1.3928c-.076.4125-.1184.837-.1184,1.272Zm6.6943-5.0863c3.3074-.3184,6.0633,2.3732,5.7383,5.6041-.2406,2.392-2.2191,4.3282-4.6673,4.5678-3.3113.324-6.0738-2.3735-5.7439-5.6101.2438-2.3918,2.2242-4.326,4.6729-4.5617Z"/>
      <path class="cls-8" d="m334.7898,331.2784c0,.0445.0015.0889.003.1334l-1.6869.9469c.0698.4964.1896.9795.3519,1.4419l1.9402.0978c.182.3734.405.7247.6584,1.0507l-.7934,1.7324c.3519.3557.7373.6787,1.1529.9647l1.6277-1.0344c.3671.1956.757.3527,1.165.4727l.399,1.8568c.49.0838.9943.1273,1.511.119l.0029-.002.6963-1.7724c.4232-.0548.8328-.1512,1.2257-.2845l1.4411,1.2745c.4581-.2178.8905-.4772,1.294-.7736l-.5036-1.8361c.3034-.2845.578-.5972.8192-.9351l1.9341.2045c.2366-.4342.4323-.8906.5825-1.3693l-1.5124-1.1959c.0652-.3542.1016-.7187.1016-1.0922,0-.0445-.003-.0889-.003-.1334l1.6869-.9455c-.0713-.4979-.1896-.9796-.3519-1.4434l-1.9402-.0978c-.1835-.3734-.405-.7247-.6599-1.0507l.7949-1.7309c-.3519-.3571-.7372-.6802-1.1529-.9662l-1.6277,1.0344c-.3671-.1941-.7585-.3527-1.165-.4727l-.399-1.8568c-.4902-.0838-.9965-.1273-1.5132-.119l-.6971,1.7743c-.4232.0548-.8328.1512-1.2257.286l-1.4426-1.2759c-.4566.2193-.8905.4787-1.294.775l.5051,1.8361c-.3034.283-.5795.5957-.8192.9336l-1.9341-.203c-.2366.4327-.4323.8906-.5825,1.3678l1.5124,1.1959c-.0652.3542-.1016.7187-.1016,1.0922Zm5.7481-4.3674c2.8399-.2734,5.2063,2.0378,4.9272,4.812-.2066,2.0539-1.9054,3.7164-4.0076,3.9222-2.8433.2782-5.2153-2.038-4.932-4.8172.2093-2.0537,1.9099-3.7145,4.0124-3.9169Z"/>
    </g>
  </g>
</svg>