<?xml version="1.0" encoding="UTF-8"?>
<svg xmlns="http://www.w3.org/2000/svg" width="344.51" height="272.32" viewBox="0 0 344.51 272.32">
  <defs>
    <style>
      .cls-1 {
        fill: #8e8ba2;
        stroke: #231f20;
        stroke-miterlimit: 10;
      }

      .cls-2 {
        fill: #9c93a3;
      }

      .cls-3 {
        fill: #fff;
      }

      .cls-4 {
        fill: #00aeef;
      }

      .cls-5 {
        fill: #464d76;
      }

      .cls-6 {
        fill: #ffc914;
      }

      .cls-7 {
        fill: #17739a;
      }

      .cls-8 {
        fill: #2f3253;
      }

      .cls-9 {
        fill: #a3a0b9;
      }

      .cls-10 {
        fill: #ad845f;
      }

      .cls-11 {
        fill: #f1f2f2;
      }

      .cls-11, .cls-12 {
        opacity: .1;
      }

      .cls-13 {
        fill: #c8c2e1;
      }

      .cls-14 {
        fill: #8f889e;
      }

      .cls-15 {
        fill: #ef4136;
      }

      .cls-16 {
        fill: #e6e7e8;
      }

      .cls-17 {
        fill: #428a55;
      }

      .cls-18 {
        fill: #ec008c;
      }

      .cls-19 {
        fill: #3f417b;
      }

      .cls-20 {
        fill: #1e1e1e;
      }

      .cls-21 {
        fill: #231f20;
      }

      .cls-12 {
        fill: none;
      }
    </style>
  </defs>
  <g id="Background">
    <path class="cls-1" d="m334.16.5H10.35C4.91.5.5,5.09.5,10.74v184.76c0,5.65,4.41,10.24,9.85,10.24h323.81c5.44,0,9.85-4.59,9.85-10.24V10.74c0-5.65-4.41-10.24-9.85-10.24Zm1.38,195.02H8.97V44.39h326.57v151.13Zm0-151.54H8.97V10.32h326.57v33.66Z"/>
    <rect class="cls-4" x="8.97" y="44.3894" width="125.24" height="151.1271"/>
    <path class="cls-2" d="m200.84,238.9l-51.79-20.43,1.78-6.73c.93-3.54,4.13-6,7.78-6h27.28c3.65,0,6.85,2.46,7.78,6l7.17,27.16Z"/>
    <polygon class="cls-13" points="205.14 255.2 139.37 255.2 149.05 218.47 200.84 238.9 205.14 255.2"/>
    <rect class="cls-9" x="95.8904" y="255.1991" width="152.7293" height="17.1209" rx="8.5604" ry="8.5604"/>
  </g>
  <g id="Foreground">
    <rect class="cls-8" x="8.97" y="10.3179" width="326.57" height="33.6658"/>
    <rect class="cls-5" x="134.21" y="44.3915" width="201.33" height="151.1271"/>
    <g>
      <rect class="cls-16" x="307.91" y="22.8658" width="15.99" height="2.0158" rx=".9691" ry=".9691"/>
      <rect class="cls-16" x="307.91" y="27.1559" width="15.99" height="2.0158" rx=".9691" ry=".9691"/>
      <rect class="cls-16" x="307.91" y="31.446" width="15.99" height="2.0158" rx=".9691" ry=".9691"/>
    </g>
    <rect class="cls-7" x="257.5541" y="56.0324" width="63.1059" height="63.1059" rx="8.5938" ry="8.5938"/>
    <g>
      <path class="cls-16" d="m308.4388,128.658c-1.3279-.1805-2.3381-1.2285-2.4469-2.4469-.1269-1.4208.996-2.8017,2.5757-2.9621-.6414-1.6983-.2082-3.5701,1.0303-4.6363,1.5564-1.3398,4.1608-1.215,5.7954.5151,1.247-1.1058,3.0078-1.4079,4.5075-.7727,1.65.6988,2.6938,2.4093,2.5757,4.2499,1.8648.0394,3.2733,1.3804,3.3484,2.8333.0785,1.5164-1.4143,3.159-1.5025,3.2197h-15.8836Z"/>
      <g>
        <path class="cls-14" d="m315.905,125.0994h0c1.0229,0,1.8534.8305,1.8534,1.8534v4.6074h-3.7068v-4.6074c0-1.0229.8305-1.8534,1.8534-1.8534Z"/>
        <path class="cls-14" d="m315.127,136.3988l-3.2596-2.6451c-.903-.7327-.3849-2.1935.778-2.1935h6.5192c1.1629,0,1.681,1.4608.778,2.1935l-3.2596,2.6451c-.4534.3679-1.1026.3679-1.5561,0Z"/>
      </g>
    </g>
    <g>
      <rect class="cls-16" x="149.05" y="53.06" width="66.6145" height="11.3478" rx="2.5914" ry="2.5914"/>
      <rect class="cls-16" x="149.05" y="70.2554" width="87.0145" height="5.1828" rx="2.5914" ry="2.5914"/>
      <rect class="cls-16" x="149.05" y="81.2858" width="87.0145" height="5.1828" rx="2.5914" ry="2.5914"/>
    </g>
    <rect class="cls-14" x="25.41" y="18.0837" width="73.07" height="20.16" rx="10.08" ry="10.08"/>
    <g>
      <rect class="cls-16" x="149.05" y="131.1868" width="94.4979" height="5.1828" rx="2.5914" ry="2.5914"/>
      <rect class="cls-16" x="149.05" y="142.2172" width="123.4369" height="5.1828" rx="2.5914" ry="2.5914"/>
      <rect class="cls-16" x="149.05" y="153.2476" width="123.4369" height="5.1828" rx="2.5914" ry="2.5914"/>
    </g>
    <g>
      <rect class="cls-16" x="149.05" y="95.2059" width="31.9396" height="5.1828" rx="2.5914" ry="2.5914"/>
      <rect class="cls-16" x="149.05" y="106.2363" width="41.7208" height="5.1828" rx="2.5914" ry="2.5914"/>
      <rect class="cls-16" x="149.05" y="117.2667" width="41.7208" height="5.1828" rx="2.5914" ry="2.5914"/>
    </g>
    <rect class="cls-8" x="251.8515" y="178.7766" width="27.3648" height="6.6172" rx="3.3086" ry="3.3086"/>
    <rect class="cls-8" x="190.5338" y="178.7766" width="27.3648" height="6.6172" rx="3.3086" ry="3.3086"/>
    <path class="cls-21" d="m291.2968,112.2372c2.4642-.2614,7.5454-1.67,11.025-6.12,1.0862-1.3892,1.8176-1.9083,2.8209-5.4367,3.1857-11.204,4.604-17.8392,1.9855-21.1931-2.3431-3.0011-6.0938-2.8505-10.2513-3.1602-4.8474-.3611-8.7838.5866-11.16,1.35-4.41.18-8.8199.36-13.23.54.03,4.74.06,9.48.09,14.22,2.28,4.53,4.56,9.06,6.84,13.59.9218,1.1085,2.4949,2.7224,4.86,4.05,2.8387,1.5934,5.486,2.0264,7.02,2.16Z"/>
    <path class="cls-10" d="m290.6097,112.1016c2.0813.1276,5.2311-.0214,8.16-1.8,6.3407-3.8506,7.2035-12.6418,7.8-18.72.3076-3.1342.4112-7.5997-.6-12.96-3.7984-1.5238-7.0109-1.9979-9.12-2.16-1.2619-.097-10.5816-.4408-11.6979,2.8065-.1375.3999.0496.1558.1779,1.6335.1642,1.8913.4082,4.7026-.48,7.08-.3505.938-1.1225,2.4651-3,3.96-1.232-4.1121-4.3825-6.2155-6.48-5.64-1.967.5397-2.9435,3.4178-2.88,5.52.0883,2.9236,2.2274,5.6582,5.52,6.96-.1297.937-.5711,4.9031,2.04,8.52,3.6985,5.1232,10.116,4.828,10.56,4.8Z"/>
    <path class="cls-21" d="m308.0798,80.1072c.6656-.4662,2.2613-1.7191,3.06-3.96.354-.9933,1.1224-3.149,0-5.04-1.0178-1.7148-3.2304-2.6056-5.58-2.34-.4216-3.1725-2.7284-5.7567-5.76-6.48-2.7537-.657-5.6828.3223-7.56,2.52-2.0388-3.3092-5.9586-4.9739-9.72-4.14-3.656.8105-6.4601,3.8258-7.02,7.56-2.4895-.2923-4.8353.9945-5.76,3.06-1.1302,2.5244.0412,5.8128,2.88,7.2,4.9196-.2851,10.2802-.3835,16.02-.18,7.0998.2517,13.6115.924,19.44,1.8Z"/>
    <rect class="cls-19" x="8.97" y="43.98" width="21.4944" height="151.5365"/>
    <g>
      <rect class="cls-20" x="35.4078" y="126.9425" width="89.28" height="55.4212" rx="23.3695" ry="23.3695"/>
      <rect class="cls-4" x="45.314" y="134.9894" width="8.264" height="3.1101" rx="1.176" ry="1.176"/>
      <rect class="cls-3" x="56.5576" y="134.9894" width="14.8552" height="3.1101" rx="1.176" ry="1.176"/>
      <rect class="cls-3" x="74.5751" y="134.9894" width="14.8552" height="3.1101" rx="1.176" ry="1.176"/>
      <rect class="cls-17" x="48.2072" y="140.8479" width="52.7356" height="3.1101" rx="1.176" ry="1.176"/>
      <rect class="cls-4" x="48.8372" y="147.737" width="8.264" height="3.1101" rx="1.176" ry="1.176"/>
      <rect class="cls-4" x="53.5781" y="153.733" width="8.264" height="3.1101" rx="1.176" ry="1.176"/>
      <rect class="cls-3" x="66.2213" y="153.733" width="14.8552" height="3.1101" rx="1.176" ry="1.176"/>
      <rect class="cls-4" x="85.2983" y="153.733" width="8.264" height="3.1101" rx="1.176" ry="1.176"/>
      <rect class="cls-6" x="104.7764" y="153.733" width="8.264" height="3.1101" rx="1.176" ry="1.176"/>
      <rect class="cls-18" x="98.1625" y="153.733" width="6.5055" height="3.1101" rx="1.176" ry="1.176"/>
      <rect class="cls-4" x="53.5885" y="159.729" width="8.264" height="3.1101" rx="1.176" ry="1.176"/>
      <rect class="cls-3" x="66.153" y="159.729" width="10.8049" height="3.1101" rx="1.176" ry="1.176"/>
      <rect class="cls-4" x="80.6873" y="159.729" width="5.2648" height="3.1101" rx="1.176" ry="1.176"/>
      <rect class="cls-3" x="96.7083" y="159.729" width="6.5055" height="3.1101" rx="1.176" ry="1.176"/>
      <rect class="cls-17" x="49.446" y="165.725" width="52.7356" height="3.1101" rx="1.176" ry="1.176"/>
      <rect class="cls-15" x="49.446" y="172.5091" width="8.264" height="3.1101" rx="1.176" ry="1.176"/>
      <rect class="cls-15" x="58.9932" y="147.737" width="8.264" height="3.1101" rx="1.176" ry="1.176"/>
    </g>
    <g>
      <path class="cls-16" d="m52.9274,89.7398c-4.8233-.658-8.4929-4.4779-8.8883-8.9194-.4611-5.179,3.6178-10.2124,9.3561-10.7972-2.3299-6.1906-.7564-13.0134,3.7424-16.8999,5.6534-4.8839,15.1136-4.429,21.0512,1.8778,4.5296-4.0308,10.9257-5.1319,16.3731-2.8167,5.9933,2.5473,9.7851,8.7823,9.3561,15.4916,6.7737.1437,11.8898,5.0316,12.1629,10.3277.285,5.5275-5.1373,11.5151-5.4577,11.7361h-57.6959Z"/>
      <path class="cls-14" d="m78.6769,87.0454l-10.4575,7.6287c-1.8186,1.3267-.8802,4.2054,1.3709,4.2054h20.9149c2.2511,0,3.1896-2.8787,1.3709-4.2054l-10.4575-7.6287c-.8168-.5959-1.925-.5959-2.7418,0Z"/>
      <path class="cls-14" d="m78.1565,97.9653h3.7826c1.5349,0,2.7811,1.2461,2.7811,2.7811v14.5363c0,2.5787-2.0936,4.6724-4.6724,4.6724h0c-2.5787,0-4.6724-2.0936-4.6724-4.6724v-14.5363c0-1.5349,1.2461-2.7811,2.7811-2.7811Z"/>
    </g>
    <g>
      <path class="cls-8" d="m77.2868,78.035c0,.0468.0016.0937.0032.1406l-1.7776.9979c.0735.5231.1998,1.0322.3709,1.5195l2.0446.1031c.1918.3935.4268.7636.6938,1.1072l-.8361,1.8255c.3709.3748.7769.7152,1.2149,1.0166l1.7153-1.09c.3869.2061.7977.3717,1.2277.4982l.4204,1.9567c.5163.0883,1.0478.1341,1.5923.1254l.003-.0021.7337-1.8677c.446-.0578.8776-.1593,1.2917-.2998l1.5186,1.343c.4828-.2296.9384-.5028,1.3636-.8152l-.5307-1.9349c.3197-.2998.6091-.6293.8632-.9854l2.0382.2155c.2494-.4576.4556-.9385.6139-1.4429l-1.5938-1.2602c.0687-.3732.1071-.7574.1071-1.1509,0-.0468-.0032-.0937-.0032-.1405l1.7776-.9963c-.0751-.5247-.1998-1.0322-.3709-1.521l-2.0446-.1031c-.1934-.3935-.4268-.7636-.6954-1.1072l.8377-1.824c-.3709-.3763-.7769-.7168-1.2149-1.0182l-1.7153,1.09c-.3869-.2046-.7993-.3717-1.2277-.4982l-.4204-1.9567c-.5165-.0884-1.0501-.1342-1.5946-.1254l-.7345,1.8698c-.446.0578-.8776.1593-1.2917.3014l-1.5202-1.3446c-.4812.2311-.9384.5044-1.3636.8167l.5323,1.9349c-.3197.2983-.6107.6278-.8632.9838l-2.0382-.2139c-.2494.456-.4556.9385-.6139,1.4414l1.5938,1.2602c-.0687.3732-.1071.7574-.1071,1.1509Zm6.0573-4.6023c2.9927-.2881,5.4863,2.1474,5.1922,5.0708-.2177,2.1644-2.0079,3.9164-4.2231,4.1331-2.9962.2932-5.4959-2.1477-5.1973-5.0763.2206-2.1642,2.0126-3.9143,4.2282-4.1276Z"/>
      <path class="cls-8" d="m67.282,71.2251c0,.0323.0011.0646.0022.097l-1.2264.6885c.0507.3609.1379.7122.2559,1.0483l1.4106.0711c.1323.2715.2945.5269.4787.7639l-.5768,1.2595c.2559.2586.536.4935.8382.7014l1.1834-.752c.2669.1422.5503.2564.847.3437l.2901,1.35c.3562.0609.7229.0925,1.0986.0865l.0021-.0014.5062-1.2886c.3077-.0399.6055-.1099.8911-.2069l1.0477.9266c.3331-.1584.6474-.3469.9408-.5624l-.3662-1.3349c.2206-.2069.4202-.4342.5956-.6798l1.4062.1487c.1721-.3157.3143-.6475.4235-.9955l-1.0996-.8695c.0474-.2575.0739-.5225.0739-.794,0-.0323-.0022-.0646-.0022-.097l1.2264-.6874c-.0518-.362-.1379-.7122-.2559-1.0494l-1.4106-.0711c-.1334-.2715-.2945-.5269-.4798-.7639l.5779-1.2584c-.2559-.2597-.536-.4945-.8382-.7025l-1.1834.752c-.2669-.1411-.5514-.2564-.847-.3437l-.2901-1.35c-.3564-.061-.7245-.0926-1.1001-.0865l-.5068,1.29c-.3077.0399-.6055.1099-.8911.2079l-1.0488-.9276c-.332.1595-.6474.348-.9408.5635l.3673,1.3349c-.2206.2058-.4213.4331-.5956.6788l-1.4062-.1476c-.1721.3146-.3143.6475-.4235.9944l1.0996.8695c-.0474.2575-.0739.5225-.0739.794Zm4.179-3.1753c2.0647-.1988,3.7851,1.4815,3.5822,3.4985-.1502,1.4933-1.3853,2.702-2.9136,2.8515-2.0672.2023-3.7917-1.4817-3.5857-3.5023.1522-1.4931,1.3885-2.7006,2.9171-2.8477Z"/>
      <path class="cls-8" d="m75.8966,64.3157c0,.0278.0009.0555.0019.0833l-1.0531.5912c.0436.3099.1184.6115.2197.9001l1.2112.0611c.1136.2331.2528.4524.411.6559l-.4953,1.0815c.2197.222.4602.4237.7197.6023l1.0161-.6457c.2292.1221.4726.2202.7273.2951l.2491,1.1592c.3059.0523.6207.0795.9433.0743l.0018-.0012.4347-1.1064c.2642-.0342.5199-.0944.7652-.1776l.8997.7956c.286-.136.5559-.2979.8078-.4829l-.3144-1.1462c.1894-.1776.3608-.3728.5114-.5837l1.2074.1277c.1477-.2711.2699-.556.3637-.8548l-.9442-.7466c.0407-.2211.0634-.4487.0634-.6818,0-.0278-.0019-.0555-.0019-.0833l1.0531-.5902c-.0445-.3108-.1184-.6115-.2197-.9011l-1.2112-.0611c-.1146-.2331-.2528-.4524-.4119-.6559l.4962-1.0805c-.2197-.223-.4602-.4246-.7197-.6032l-1.0161.6457c-.2292-.1212-.4735-.2202-.7273-.2951l-.2491-1.1592c-.306-.0523-.6221-.0795-.9446-.0743l-.4351,1.1077c-.2642.0342-.5199.0944-.7652.1785l-.9006-.7965c-.285.1369-.5559.2988-.8078.4838l.3153,1.1462c-.1894.1767-.3618.3719-.5114.5828l-1.2074-.1267c-.1477.2701-.2699.556-.3637.8539l.9442.7466c-.0407.2211-.0635.4487-.0635.6818Zm3.5884-2.7265c1.7729-.1707,3.2501,1.2721,3.0759,3.004-.129,1.2822-1.1895,2.3201-2.5018,2.4485-1.775.1737-3.2558-1.2723-3.0789-3.0072.1307-1.2821,1.1923-2.3189,2.5048-2.4452Z"/>
    </g>
  </g>
  <g id="Shadows">
    <polygon class="cls-12" points="335.54 10.32 335.54 195.52 225.86 195.52 291.05 10.32 335.54 10.32"/>
    <polygon class="cls-12" points="282.36 10.32 217.17 195.52 118.71 195.52 183.9 10.32 282.36 10.32"/>
    <polygon class="cls-12" points="175.2 10.32 110.01 195.52 21.76 195.52 86.95 10.32 175.2 10.32"/>
    <polygon class="cls-12" points="78.26 10.32 13.07 195.52 8.97 195.52 8.97 10.32 78.26 10.32"/>
    <polygon class="cls-11" points="21.76 10.32 86.95 195.52 95.65 195.52 30.46 10.32 21.76 10.32"/>
    <polygon class="cls-11" points="188.915 10.32 254.105 195.52 262.805 195.52 197.615 10.32 188.915 10.32"/>
  </g>
</svg>